<?xml version="1.0" encoding="UTF-8"?>
<!DOCTYPE svg PUBLIC "-//W3C//DTD SVG 1.1//EN" "http://www.w3.org/Graphics/SVG/1.1/DTD/svg11.dtd">
<!-- Creator: CorelDRAW X8 -->
<svg xmlns="http://www.w3.org/2000/svg" xml:space="preserve" width="32px" height="32px" version="1.1" style="shape-rendering:geometricPrecision; text-rendering:geometricPrecision; image-rendering:optimizeQuality; fill-rule:evenodd; clip-rule:evenodd"
viewBox="0 0 150873 150873"
 xmlns:xlink="http://www.w3.org/1999/xlink">
 <defs>
  <style type="text/css">
   <![CDATA[
    .fil0 {fill:none}
    .fil1 {fill:#FEFEFE}
    .fil2 {fill:#294760}
   ]]>
  </style>
 </defs>
 <g id="Layer_x0020_1">
  <metadata id="CorelCorpID_0Corel-Layer"/>
  <rect class="fil0" width="150873" height="150873"/>
  <g id="_803752282288">
   <path class="fil1" d="M135785 62796c0,-33330 -27021,-60349 -60349,-60349 -33328,0 -60348,27019 -60348,60349 0,35188 35680,60963 58220,83501l2127 2129 2129 -2129c22539,-22539 58221,-48312 58221,-83501z"/>
   <path class="fil2" d="M132775 62796c0,-31669 -25671,-57339 -57339,-57339 -31667,0 -57338,25670 -57338,57339 0,33797 35475,59510 57337,81372 21865,-21863 57340,-47574 57340,-81372z"/>
   <circle class="fil1" transform="matrix(-0.311705 0.311705 0.311705 0.311705 75436.4 62795.3)" r="111559"/>
   <path class="fil2" d="M90383 75272l7925 -312 0 0c65,1777 -1322,3285 -3096,3346l-7927 305 0 0c-63,-1768 1323,-3276 3098,-3339zm-29883 0l-7927 -312 0 0c-72,1777 1321,3285 3095,3346l7925 305 0 0c66,-1768 -1329,-3276 -3093,-3339zm-5280 -8172c-2846,303 -4302,-1237 -4172,-5461 -275,-7275 -94,-12525 633,-18945 477,-3058 2109,-4832 5413,-4775 12228,0 24461,0 36692,0 3303,-57 4940,1717 5412,4775 721,6420 906,11670 636,18945 125,4224 -1335,5764 -4174,5461 -13079,582 -27363,582 -40440,0zm2988 -37782c-5716,609 -8305,4082 -8956,7769 -7048,1059 -7986,6634 -8564,14102 -67,959 -61,1089 1265,1130 906,30 1805,13 2713,20 1344,9 1099,-167 1080,-1132 -67,-5119 -90,-11317 3089,-11180 -1869,14110 -2756,28657 -379,41073 591,4011 3076,5245 6361,5298 12794,1290 28439,1290 41245,0 3283,-53 5770,-1287 6363,-5298 2374,-12416 1494,-26963 -383,-41073 3182,-137 3157,6061 3091,11180 -21,965 -265,1141 1078,1132 911,-7 1809,10 2714,-20 1323,-41 1336,-171 1257,-1130 -569,-7468 -1510,-13043 -8555,-14102 -651,-3687 -3237,-7160 -8958,-7769 -11148,-802 -23306,-802 -34461,0zm3820 6308c-222,0 -400,-201 -400,-438l0 -3662c0,-239 178,-436 400,-436 8941,0 17880,0 26825,0 216,0 392,197 392,436l0 3662c0,237 -176,438 -392,438 -8945,0 -17884,0 -26825,0zm-3996 61255l-5994 0c-594,0 -1087,-485 -1087,-1087l0 -8781c1023,571 2277,805 3672,837 1496,143 2999,277 4498,385l0 7559c0,594 -487,1087 -1089,1087zm34814 0l5995 0c596,0 1085,-485 1085,-1087l0 -8781c-1027,571 -2274,805 -3671,837 -1501,143 -2993,277 -4495,385l0 7559c0,594 484,1087 1086,1087z"/>
  </g>
 </g>
</svg>
