<?xml version="1.0" encoding="UTF-8"?>
<!DOCTYPE svg PUBLIC "-//W3C//DTD SVG 1.1//EN" "http://www.w3.org/Graphics/SVG/1.1/DTD/svg11.dtd">
<!-- Creator: CorelDRAW X8 -->
<svg xmlns="http://www.w3.org/2000/svg" xml:space="preserve" width="129px" height="129px" version="1.1" style="shape-rendering:geometricPrecision; text-rendering:geometricPrecision; image-rendering:optimizeQuality; fill-rule:evenodd; clip-rule:evenodd"
viewBox="0 0 138424 138424"
 xmlns:xlink="http://www.w3.org/1999/xlink">
 <defs>
  <style type="text/css">
   <![CDATA[
    .fil0 {fill:none}
    .fil2 {fill:#FEFEFE}
    .fil1 {fill:#ED3237}
   ]]>
  </style>
 </defs>
 <g id="Layer_x0020_1">
  <metadata id="CorelCorpID_0Corel-Layer"/>
  <g id="_803708676176">
   <rect class="fil0" width="138424" height="138424"/>
   <path class="fil1" d="M121819 57614c0,-29055 -23553,-52607 -52607,-52607 -29054,0 -52607,23552 -52607,52607 0,31009 32547,54600 52606,74659 20061,-20060 52608,-43649 52608,-74659z"/>
   <circle class="fil2" transform="matrix(-0.311705 0.311705 0.311705 0.311705 69211.9 57613.9)" r="102354"/>
   <path class="fil1" d="M82925 69061l7271 -286 0 0c60,1631 -1212,3013 -2840,3069l-7273 281 0 0c-58,-1623 1214,-3006 2842,-3064zm-27417 0l-7273 -286 0 0c-66,1631 1212,3013 2840,3069l7271 281 0 0c61,-1623 -1219,-3006 -2838,-3064zm-4845 -7497c-2611,278 -3946,-1136 -3827,-5011 -253,-6675 -86,-11491 580,-17382 438,-2805 1935,-4433 4967,-4381 11219,0 22443,0 33665,0 3029,-52 4532,1576 4965,4381 661,5891 831,10707 584,17382 114,3875 -1226,5289 -3830,5011 -12000,533 -25105,533 -37104,0zm2742 -34665c-5245,559 -7619,3745 -8217,7128 -6466,971 -7327,6086 -7857,12938 -62,880 -56,1000 1161,1037 830,28 1656,12 2489,19 1233,7 1008,-154 990,-1039 -61,-4697 -82,-10384 2834,-10258 -1714,12946 -2528,26292 -348,37684 543,3680 2823,4813 5837,4861 11738,1184 26093,1184 37841,0 3012,-48 5294,-1181 5839,-4861 2178,-11392 1370,-24738 -352,-37684 2920,-126 2897,5561 2836,10258 -19,885 -243,1046 989,1039 836,-7 1660,9 2490,-19 1214,-37 1226,-157 1153,-1037 -522,-6852 -1385,-11967 -7849,-12938 -597,-3383 -2970,-6569 -8218,-7128 -10229,-736 -21383,-736 -31618,0zm3505 5787c-204,0 -367,-184 -367,-401l0 -3360c0,-220 163,-400 367,-400 8203,0 16405,0 24612,0 198,0 359,180 359,400l0 3360c0,217 -161,401 -359,401 -8207,0 -16409,0 -24612,0zm-3666 56201l-5500 0c-545,0 -997,-444 -997,-997l0 -8057c938,524 2089,739 3369,768 1373,131 2752,254 4127,353l0 6936c0,545 -447,997 -999,997zm31941 0l5500 0c547,0 996,-444 996,-997l0 -8057c-943,524 -2087,739 -3368,768 -1378,131 -2747,254 -4124,353l0 6936c0,545 444,997 996,997z"/>
  </g>
 </g>
</svg>
