<?xml version="1.0" encoding="UTF-8"?>
<!DOCTYPE svg PUBLIC "-//W3C//DTD SVG 1.1//EN" "http://www.w3.org/Graphics/SVG/1.1/DTD/svg11.dtd">
<!-- Creator: CorelDRAW X8 -->
<svg xmlns="http://www.w3.org/2000/svg" xml:space="preserve" width="129px" height="129px" version="1.1" style="shape-rendering:geometricPrecision; text-rendering:geometricPrecision; image-rendering:optimizeQuality; fill-rule:evenodd; clip-rule:evenodd"
viewBox="0 0 146420 146420"
 xmlns:xlink="http://www.w3.org/1999/xlink">
 <defs>
  <style type="text/css">
   <![CDATA[
    .fil0 {fill:none}
    .fil2 {fill:#FEFEFE}
    .fil1 {fill:#294760}
   ]]>
  </style>
 </defs>
 <g id="Layer_x0020_1">
  <metadata id="CorelCorpID_0Corel-Layer"/>
  <g id="_803769010784">
   <rect class="fil0" width="146420" height="146420"/>
   <path class="fil1" d="M128856 60942c0,-30733 -24914,-55646 -55646,-55646 -30733,0 -55646,24913 -55646,55646 0,32800 34427,57754 55644,78971 21220,-21218 55648,-46170 55648,-78971z"/>
   <circle class="fil2" transform="matrix(-0.311705 0.311705 0.311705 0.311705 73209.8 60941.8)" r="108266"/>
   <path class="fil1" d="M87715 73050l7691 -302 0 0c63,1724 -1283,3187 -3005,3246l-7692 297 0 0c-62,-1716 1284,-3179 3006,-3241zm-29001 0l-7693 -302 0 0c-69,1724 1282,3187 3004,3246l7691 297 0 0c65,-1716 -1289,-3179 -3002,-3241zm-5124 -7930c-2762,294 -4175,-1201 -4049,-5301 -267,-7059 -91,-12154 614,-18385 464,-2967 2047,-4689 5253,-4634 11868,0 23740,0 35610,0 3205,-55 4794,1667 5252,4634 700,6231 880,11326 618,18385 121,4100 -1296,5595 -4051,5301 -12694,564 -26555,564 -39247,0zm2900 -36667c-5548,591 -8060,3961 -8692,7539 -6840,1028 -7750,6438 -8311,13686 -65,931 -59,1057 1228,1096 879,30 1752,14 2633,20 1304,9 1066,-162 1047,-1098 -64,-4969 -87,-10984 2999,-10851 -1814,13694 -2675,27811 -369,39861 574,3893 2986,5091 6174,5142 12416,1252 27600,1252 40027,0 3186,-51 5600,-1249 6176,-5142 2304,-12050 1450,-26167 -372,-39861 3088,-133 3064,5882 3000,10851 -21,936 -257,1107 1046,1098 884,-6 1755,10 2634,-20 1284,-39 1296,-165 1220,-1096 -553,-7248 -1466,-12658 -8303,-13686 -631,-3578 -3142,-6948 -8693,-7539 -10819,-779 -22618,-779 -33444,0zm3707 6121c-215,0 -388,-195 -388,-424l0 -3555c0,-232 173,-423 388,-423 8677,0 17353,0 26034,0 209,0 380,191 380,423l0 3555c0,229 -171,424 -380,424 -8681,0 -17357,0 -26034,0zm-3878 59447l-5817 0c-577,0 -1055,-470 -1055,-1054l0 -8523c993,555 2210,782 3564,813 1452,138 2910,269 4365,373l0 7337c0,576 -473,1054 -1057,1054zm33787 0l5817 0c579,0 1053,-470 1053,-1054l0 -8523c-996,555 -2206,782 -3562,813 -1457,138 -2905,269 -4362,373l0 7337c0,576 470,1054 1054,1054z"/>
  </g>
 </g>
</svg>
