<?xml version="1.0" encoding="UTF-8"?>
<!DOCTYPE svg PUBLIC "-//W3C//DTD SVG 1.1//EN" "http://www.w3.org/Graphics/SVG/1.1/DTD/svg11.dtd">
<!-- Creator: CorelDRAW X8 -->
<svg xmlns="http://www.w3.org/2000/svg" xml:space="preserve" width="103px" height="125px" version="1.1" style="shape-rendering:geometricPrecision; text-rendering:geometricPrecision; image-rendering:optimizeQuality; fill-rule:evenodd; clip-rule:evenodd"
viewBox="0 0 90342 109266"
 xmlns:xlink="http://www.w3.org/1999/xlink">
 <defs>
  <style type="text/css">
   <![CDATA[
    .fil0 {fill:#FEFEFE}
    .fil1 {fill:#ED3237}
   ]]>
  </style>
 </defs>
 <g id="Layer_x0020_1">
  <metadata id="CorelCorpID_0Corel-Layer"/>
  <g id="_803799657760">
   <path class="fil0" d="M90342 45172c0,-24948 -20225,-45172 -45171,-45172 -24947,0 -45172,20224 -45172,45172 0,26338 26707,45631 43578,62501l1593 1593 1593 -1593c16871,-16871 43579,-36162 43579,-62501z"/>
   <path class="fil1" d="M88089 45172c0,-23705 -19215,-42919 -42918,-42919 -23704,0 -42919,19214 -42919,42919 0,25297 26553,44543 42918,60908 16366,-16366 42919,-35610 42919,-60908z"/>
   <circle class="fil0" transform="matrix(-0.311705 0.311705 0.311705 0.311705 45170.5 45171.2)" r="83503"/>
   <path class="fil1" d="M56358 54510l5932 -233 0 0c49,1330 -989,2458 -2317,2504l-5933 229 0 0c-48,-1324 990,-2452 2318,-2500zm-22368 0l-5933 -233 0 0c-54,1330 989,2458 2317,2504l5932 229 0 0c49,-1324 -995,-2452 -2316,-2500zm-3952 -6117c-2130,227 -3220,-926 -3122,-4087 -206,-5446 -71,-9375 473,-14181 358,-2288 1579,-3616 4052,-3574 9153,0 18310,0 27465,0 2471,-42 3697,1286 4050,3574 540,4806 679,8735 477,14181 93,3161 -1000,4314 -3125,4087 -9790,436 -20481,436 -30270,0zm2237 -28280c-4279,456 -6216,3056 -6704,5815 -5275,793 -5978,4966 -6410,10556 -50,718 -45,815 947,845 678,23 1351,11 2031,16 1006,6 822,-126 808,-848 -50,-3832 -67,-8471 2312,-8368 -1398,10562 -2062,21450 -284,30743 443,3003 2303,3927 4762,3966 9576,966 21287,966 30872,0 2457,-39 4319,-963 4763,-3966 1777,-9293 1118,-20181 -287,-30743 2382,-103 2363,4536 2313,8368 -15,722 -197,854 807,848 682,-5 1354,7 2032,-16 990,-30 1000,-127 941,-845 -426,-5590 -1131,-9763 -6404,-10556 -487,-2759 -2423,-5359 -6704,-5815 -8345,-600 -17445,-600 -25795,0zm2859 4721c-166,0 -299,-150 -299,-327l0 -2741c0,-179 133,-326 299,-326 6692,0 13384,0 20079,0 162,0 293,147 293,326l0 2741c0,177 -131,327 -293,327 -6695,0 -13387,0 -20079,0zm-2991 45851l-4487 0c-444,0 -813,-363 -813,-814l0 -6573c766,428 1704,603 2749,627 1119,107 2245,207 3367,288l0 5658c0,445 -365,814 -816,814zm26059 0l4487 0c446,0 812,-363 812,-814l0 -6573c-769,428 -1702,603 -2747,627 -1124,107 -2241,207 -3365,288l0 5658c0,445 362,814 813,814z"/>
  </g>
 </g>
</svg>
